<?xml version="1.0" encoding="UTF-8" standalone="no"?>
<!-- Generator: Adobe Illustrator 23.0.3, SVG Export Plug-In . SVG Version: 6.00 Build 0)  -->

<svg
   xmlns:dc="http://purl.org/dc/elements/1.1/"
   xmlns:cc="http://creativecommons.org/ns#"
   xmlns:rdf="http://www.w3.org/1999/02/22-rdf-syntax-ns#"
   xmlns:svg="http://www.w3.org/2000/svg"
   xmlns="http://www.w3.org/2000/svg"
   xmlns:sodipodi="http://sodipodi.sourceforge.net/DTD/sodipodi-0.dtd"
   xmlns:inkscape="http://www.inkscape.org/namespaces/inkscape"
   version="1.1"
   id="Layer_1"
   x="0px"
   y="0px"
   viewBox="0 0 600 250"
   style="enable-background:new 0 0 600 250;"
   xml:space="preserve"
   sodipodi:docname="border.svg"
   inkscape:version="0.92.3 (2405546, 2018-03-11)"><metadata
   id="metadata3881"><rdf:RDF><cc:Work
       rdf:about=""><dc:format>image/svg+xml</dc:format><dc:type
         rdf:resource="http://purl.org/dc/dcmitype/StillImage" /></cc:Work></rdf:RDF></metadata><defs
   id="defs3879" /><sodipodi:namedview
   pagecolor="#ffffff"
   bordercolor="#666666"
   borderopacity="1"
   objecttolerance="10"
   gridtolerance="10"
   guidetolerance="10"
   inkscape:pageopacity="0"
   inkscape:pageshadow="2"
   inkscape:window-width="1920"
   inkscape:window-height="1017"
   id="namedview3877"
   showgrid="false"
   showguides="false"
   inkscape:zoom="2.74"
   inkscape:cx="300"
   inkscape:cy="139.54032"
   inkscape:window-x="1912"
   inkscape:window-y="-8"
   inkscape:window-maximized="1"
   inkscape:current-layer="Layer_1" />
<style
   type="text/css"
   id="style3798">
	.st0{fill:none;stroke:#000000;stroke-miterlimit:10;}
</style>
<g
   id="g3802">
	<line
   class="st0"
   x1="26.5"
   y1="7.5"
   x2="8.5"
   y2="49.5"
   id="line3800" />
</g>
<line
   class="st0"
   x1="8.5"
   y1="49.5"
   x2="23.5"
   y2="49.5"
   id="line3804" />
<line
   class="st0"
   x1="26.5"
   y1="7.5"
   x2="51.5"
   y2="49.5"
   id="line3806" />
<line
   class="st0"
   x1="51.5"
   y1="49.5"
   x2="38.5"
   y2="49.5"
   id="line3808" />
<line
   class="st0"
   x1="38.5"
   y1="49.5"
   x2="51.5"
   y2="93.5"
   id="line3810" />
<line
   class="st0"
   x1="23.5"
   y1="49.5"
   x2="8.5"
   y2="93.5"
   id="line3812" />
<line
   class="st0"
   x1="51.5"
   y1="93.5"
   x2="38.5"
   y2="93.5"
   id="line3814" />
<line
   class="st0"
   x1="8.5"
   y1="93.5"
   x2="23.5"
   y2="93.5"
   id="line3816" />
<line
   class="st0"
   x1="38.5"
   y1="93.5"
   x2="48.5"
   y2="140.5"
   id="line3818" />
<line
   class="st0"
   x1="23.5"
   y1="93.5"
   x2="8.5"
   y2="140.5"
   id="line3820" />
<line
   class="st0"
   x1="8.5"
   y1="140.5"
   x2="23.5"
   y2="140.5"
   id="line3822" />
<line
   class="st0"
   x1="48.5"
   y1="140.5"
   x2="38.5"
   y2="140.5"
   id="line3824" />
<line
   class="st0"
   x1="23.5"
   y1="140.5"
   x2="8.5"
   y2="192.5"
   id="line3826" />
<line
   class="st0"
   x1="38.5"
   y1="140.5"
   x2="51.5"
   y2="194.5"
   id="line3828" />
<line
   class="st0"
   x1="8.5"
   y1="192.5"
   x2="23.5"
   y2="192.5"
   id="line3830" />
<line
   class="st0"
   x1="51.5"
   y1="194.5"
   x2="38.5"
   y2="194.5"
   id="line3832" />
<line
   class="st0"
   x1="23.5"
   y1="192.5"
   x2="23.5"
   y2="249.5"
   id="line3834" />
<line
   class="st0"
   x1="38.5"
   y1="194.5"
   x2="38.5"
   y2="249.5"
   id="line3836" />
<g
   id="g3840">
	<line
   class="st0"
   x1="566.5"
   y1="4.5"
   x2="548.5"
   y2="46.5"
   id="line3838" />
</g>
<line
   class="st0"
   x1="548.5"
   y1="46.5"
   x2="563.5"
   y2="46.5"
   id="line3842" />
<line
   class="st0"
   x1="566.5"
   y1="4.5"
   x2="591.5"
   y2="46.5"
   id="line3844" />
<line
   class="st0"
   x1="591.5"
   y1="46.5"
   x2="578.5"
   y2="46.5"
   id="line3846" />
<line
   class="st0"
   x1="578.5"
   y1="46.5"
   x2="591.5"
   y2="90.5"
   id="line3848" />
<line
   class="st0"
   x1="563.5"
   y1="46.5"
   x2="548.5"
   y2="90.5"
   id="line3850" />
<line
   class="st0"
   x1="591.5"
   y1="90.5"
   x2="578.5"
   y2="90.5"
   id="line3852" />
<line
   class="st0"
   x1="548.5"
   y1="90.5"
   x2="563.5"
   y2="90.5"
   id="line3854" />
<line
   class="st0"
   x1="578.5"
   y1="90.5"
   x2="588.5"
   y2="137.5"
   id="line3856"
   style="fill:#008000" />
<line
   class="st0"
   x1="563.5"
   y1="90.5"
   x2="548.5"
   y2="137.5"
   id="line3858" />
<line
   class="st0"
   x1="548.5"
   y1="137.5"
   x2="563.5"
   y2="137.5"
   id="line3860" />
<line
   class="st0"
   x1="588.5"
   y1="137.5"
   x2="578.5"
   y2="137.5"
   id="line3862" />
<line
   class="st0"
   x1="563.5"
   y1="137.5"
   x2="548.5"
   y2="189.5"
   id="line3864" />
<line
   class="st0"
   x1="578.5"
   y1="137.5"
   x2="591.5"
   y2="191.5"
   id="line3866" />
<line
   class="st0"
   x1="548.5"
   y1="189.5"
   x2="563.5"
   y2="189.5"
   id="line3868" />
<line
   class="st0"
   x1="591.5"
   y1="191.5"
   x2="578.5"
   y2="191.5"
   id="line3870" />
<line
   class="st0"
   x1="563.5"
   y1="189.5"
   x2="563.5"
   y2="246.5"
   id="line3872" />
<line
   class="st0"
   x1="578.5"
   y1="191.5"
   x2="578.5"
   y2="246.5"
   id="line3874" />
<path
   style="fill:#000000;stroke:#000000;stroke-width:1px;stroke-linecap:butt;stroke-linejoin:miter;stroke-opacity:1"
   d="m 127.95467,52.254958 c -15.06845,-9.876934 -54.050988,0 -54.050988,0 L 74.583569,192.31161 C 217.77857,181.49042 213.52531,83.69646 127.95467,52.254958 Z"
   id="path3885"
   inkscape:connector-curvature="0"
   sodipodi:nodetypes="cccc" /><path
   style="fill:#000000;stroke:#000000;stroke-width:1px;stroke-linecap:butt;stroke-linejoin:miter;stroke-opacity:1"
   d="m 200.62323,44.674221 c 0,0 -6.85334,136.860529 0,138.696879 6.85334,1.83635 114.71876,0.96154 114.71876,0.96154 l 0.52203,-15.91905 H 218.98017 V 46.033994 Z"
   id="path3902"
   inkscape:connector-curvature="0"
   sodipodi:nodetypes="csccccc" /><path
   style="fill:#000000;stroke:#000000;stroke-width:1px;stroke-linecap:butt;stroke-linejoin:miter;stroke-opacity:1"
   d="m 360.40793,45.518414 26.51558,8.498584 C 336.69167,95.647187 317.61539,138.69549 400.1813,176.73655 l -29.57507,9.17847 C 302.29353,145.50625 313.83734,86.831783 360.40793,45.518414 Z"
   id="path3908"
   inkscape:connector-curvature="0"
   sodipodi:nodetypes="ccccc" /><path
   style="fill:none;stroke:#000000;stroke-width:1px;stroke-linecap:butt;stroke-linejoin:miter;stroke-opacity:1"
   d="m 400.45326,53.512748 c 37.5265,-17.505861 76.03402,-27.058839 128.83736,-9.517836 4.14147,3.561457 7.0714,24.201112 3.05719,30.254765 -80.058,77.573843 -123.07163,111.526903 -7.4753,108.781483 l 10e-6,17.33712"
   id="path3910"
   inkscape:connector-curvature="0"
   sodipodi:nodetypes="ccccc" /><path
   style="fill:none;stroke:#000000;stroke-width:1px;stroke-linecap:butt;stroke-linejoin:miter;stroke-opacity:1"
   d="m 524.87252,200.36828 c -37.18651,-1.95879 -63.60233,-5.65289 -107.42209,0.67988 C 423.73296,123.12434 480.57816,100.73748 519.09676,60.649438 493.02733,43.756791 440.87651,61.177 405.55241,64.390934 l -5.09915,-10.878186"
   id="path3912"
   inkscape:connector-curvature="0"
   sodipodi:nodetypes="ccccc" /><path
   style="fill:#ffffff;stroke:#000000;stroke-width:1px;stroke-linecap:butt;stroke-linejoin:miter;stroke-opacity:1"
   d="M 87.365439,67.110481 87.025496,179.63172 c 6.764282,-1.71021 13.074554,-3.55578 18.943764,-5.5176 99.49881,-33.25811 72.24342,-99.92863 -18.603821,-107.003639 z"
   id="path3914"
   inkscape:connector-curvature="0"
   sodipodi:nodetypes="ccsc" /><path
   style="fill:none;stroke:#000000;stroke-width:1px;stroke-linecap:butt;stroke-linejoin:miter;stroke-opacity:1"
   d="m 245.09915,168.75354 -0.67989,-16.99716 -8.15864,-0.33995 0.67989,-10.87819 h 64.58923 l 0.67989,12.23797 h -10.53824 v 15.97733 c -19.54928,-1.21785 -25.45071,0.66537 -46.57224,0 z"
   id="path3916"
   inkscape:connector-curvature="0"
   sodipodi:nodetypes="ccccccccc" /><path
   style="fill:#c87137;stroke:#000000;stroke-width:1px;stroke-linecap:butt;stroke-linejoin:miter;stroke-opacity:1"
   d="m 246.51122,140.61671 10.82518,-23.58522 4.08003,3.79004 -8.47252,19.40294 z"
   id="path3918"
   inkscape:connector-curvature="0"
   sodipodi:nodetypes="ccccc" /><path
   style="fill:#c87137;stroke:#000000;stroke-width:1px;stroke-linecap:butt;stroke-linejoin:miter;stroke-opacity:1"
   d="m 261.41643,120.82153 -1.98732,19.61214 10.93047,-0.2877 -0.10462,-17.62476 z"
   id="path3920"
   inkscape:connector-curvature="0"
   sodipodi:nodetypes="ccccc" /><path
   style="fill:#c87137;stroke:#000000;stroke-width:1px;stroke-linecap:butt;stroke-linejoin:miter;stroke-opacity:1"
   d="m 270.25496,122.52125 6.61578,-4.81155 15.16681,22.14866 -12.60402,0.36611 z"
   id="path3922"
   inkscape:connector-curvature="0"
   sodipodi:nodetypes="ccccc" /><path
   style="fill:none;stroke:#000000;stroke-width:1px;stroke-linecap:butt;stroke-linejoin:miter;stroke-opacity:1"
   d="m 244.41926,151.75638 47.25213,1.01983"
   id="path3926"
   inkscape:connector-curvature="0" /><path
   style="fill:#008000;stroke:#000000;stroke-width:1px;stroke-linecap:butt;stroke-linejoin:miter;stroke-opacity:1"
   d="M 66.326531,249.65986 85.714286,212.2449 99.30174,250.38101"
   id="path3928"
   inkscape:connector-curvature="0"
   sodipodi:nodetypes="ccc" /><path
   style="fill:#008000;stroke:#000000;stroke-width:1px;stroke-linecap:butt;stroke-linejoin:miter;stroke-opacity:1"
   d="M 123.12925,249.65986 140.47619,210.54421 158.5034,250"
   id="path3930"
   inkscape:connector-curvature="0"
   sodipodi:nodetypes="ccc" /><path
   style="fill:#008000;stroke:#000000;stroke-width:1px;stroke-linecap:butt;stroke-linejoin:miter;stroke-opacity:1"
   d="m 171.08844,250.68027 23.46938,-38.09523 24.41294,37.83686"
   id="path3932"
   inkscape:connector-curvature="0"
   sodipodi:nodetypes="ccc" /><path
   style="fill:#008000;stroke:#000000;stroke-width:1px;stroke-linecap:butt;stroke-linejoin:miter;stroke-opacity:1"
   d="m 253.40136,250.68027 17.68708,-38.43537 22.10884,38.77551"
   id="path3934"
   inkscape:connector-curvature="0"
   sodipodi:nodetypes="ccc" /><path
   style="fill:none;stroke:#000000;stroke-width:1px;stroke-linecap:butt;stroke-linejoin:miter;stroke-opacity:1"
   d="m 346.2585,250.68027 8.84354,-38.09524 185.71429,1.02041 19.47545,36.53274"
   id="path3936"
   inkscape:connector-curvature="0"
   sodipodi:nodetypes="cccc" /><path
   style="fill:#ffdd55;stroke:#000000;stroke-width:1px;stroke-linecap:butt;stroke-linejoin:miter;stroke-opacity:1"
   d="m 365.45095,249.90567 0.0505,-10.28572 -7.33816,-0.2458 v -5.14286 l 73.80952,1.24281 v 4.58032 h -8.5034 l -0.34014,9.60544 L 418.02721,250 v -9.60544 l -48.29932,-0.34014 0.34014,9.60544 z"
   id="path3938"
   inkscape:connector-curvature="0"
   sodipodi:nodetypes="ccccccccccccc" /><path
   style="fill:none;stroke:#000000;stroke-width:1px;stroke-linecap:butt;stroke-linejoin:miter;stroke-opacity:1"
   d="m 38.5,249.5 v 0 l 0.171875,2.0625"
   id="path3940"
   inkscape:connector-curvature="0"
   sodipodi:nodetypes="ccc" /><path
   style="fill:none;stroke:#000000;stroke-width:1px;stroke-linecap:butt;stroke-linejoin:miter;stroke-opacity:1"
   d="m 23.5,249.5 v 0"
   id="path3942"
   inkscape:connector-curvature="0" /><path
   style="fill:none;stroke:#000000;stroke-width:1px;stroke-linecap:butt;stroke-linejoin:miter;stroke-opacity:1"
   d="M 23.4375,252.14843 23.5,249.5"
   id="path3944"
   inkscape:connector-curvature="0"
   sodipodi:nodetypes="cc" /><path
   style="fill:none;stroke:#000000;stroke-width:1px;stroke-linecap:butt;stroke-linejoin:miter;stroke-opacity:1"
   d="m 563.5,246.5 0.36719,3.69531"
   id="path3946"
   inkscape:connector-curvature="0" /><path
   style="fill:none;stroke:#000000;stroke-width:1px;stroke-linecap:butt;stroke-linejoin:miter;stroke-opacity:1"
   d="m 578.5,246.5 0.21094,4.28125"
   id="path3948"
   inkscape:connector-curvature="0" /><path
   style="fill:none;stroke:#000000;stroke-width:1px;stroke-linecap:butt;stroke-linejoin:miter;stroke-opacity:1"
   d="m 79.251701,224.4898 c 1.389406,8.70563 4.746891,16.24565 -1.06129,25.55108"
   id="path3950"
   inkscape:connector-curvature="0"
   sodipodi:nodetypes="cc" /><path
   style="fill:none;stroke:#000000;stroke-width:1px;stroke-linecap:butt;stroke-linejoin:miter;stroke-opacity:1"
   d="m 89.673273,250.34015 c -6.739105,-8.31917 -1.168587,-17.35949 0.340134,-25.67866"
   id="path3952"
   inkscape:connector-curvature="0"
   sodipodi:nodetypes="cc" /><path
   style="fill:none;stroke:#000000;stroke-width:1px;stroke-linecap:butt;stroke-linejoin:miter;stroke-opacity:1"
   d="M 90.013407,224.66149 79.251701,224.4898"
   id="path3954"
   inkscape:connector-curvature="0"
   sodipodi:nodetypes="cc" /><path
   style="fill:none;stroke:#000000;stroke-width:1px;stroke-linecap:butt;stroke-linejoin:miter;stroke-opacity:1"
   d="m 135.01973,223.70589 c 1.38941,8.70563 4.26612,17.44757 -1.54206,26.753"
   id="path3950-9"
   inkscape:connector-curvature="0"
   sodipodi:nodetypes="cc" /><path
   style="fill:none;stroke:#000000;stroke-width:1px;stroke-linecap:butt;stroke-linejoin:miter;stroke-opacity:1"
   d="m 145.92207,250.99855 c -6.7391,-8.31917 -1.64936,-18.8018 -0.14063,-27.12097"
   id="path3952-0"
   inkscape:connector-curvature="0"
   sodipodi:nodetypes="cc" /><path
   style="fill:none;stroke:#000000;stroke-width:1px;stroke-linecap:butt;stroke-linejoin:miter;stroke-opacity:1"
   d="m 145.78144,223.87758 -10.76171,-0.17169"
   id="path3954-1"
   inkscape:connector-curvature="0"
   sodipodi:nodetypes="cc" /><path
   style="fill:none;stroke:#000000;stroke-width:1px;stroke-linecap:butt;stroke-linejoin:miter;stroke-opacity:1"
   d="m 189.34665,220.10012 c 1.38941,8.70563 3.30458,20.81296 -2.5036,30.11839"
   id="path3950-5"
   inkscape:connector-curvature="0"
   sodipodi:nodetypes="cc" /><path
   style="fill:none;stroke:#000000;stroke-width:1px;stroke-linecap:butt;stroke-linejoin:miter;stroke-opacity:1"
   d="m 201.45091,250.27739 c -6.7391,-8.31917 -2.85127,-21.68641 -1.34255,-30.00558"
   id="path3952-8"
   inkscape:connector-curvature="0"
   sodipodi:nodetypes="cc" /><path
   style="fill:none;stroke:#000000;stroke-width:1px;stroke-linecap:butt;stroke-linejoin:miter;stroke-opacity:1"
   d="m 200.10836,220.27181 -10.76171,-0.17169"
   id="path3954-4"
   inkscape:connector-curvature="0"
   sodipodi:nodetypes="cc" /><path
   style="fill:none;stroke:#000000;stroke-width:1px;stroke-linecap:butt;stroke-linejoin:miter;stroke-opacity:1"
   d="m 266.26973,223.22512 c 1.38941,8.70563 4.98727,17.92834 -0.82091,27.23377"
   id="path3950-4"
   inkscape:connector-curvature="0"
   sodipodi:nodetypes="cc" /><g
   id="g4169"><path
     sodipodi:nodetypes="cc"
     inkscape:connector-curvature="0"
     id="path3952-5"
     d="m 278.85476,250.27739 c -6.7391,-8.31917 -3.33205,-18.56141 -1.82332,-26.88058"
     style="fill:none;stroke:#000000;stroke-width:1px;stroke-linecap:butt;stroke-linejoin:miter;stroke-opacity:1" /></g><path
   style="fill:none;stroke:#000000;stroke-width:1px;stroke-linecap:butt;stroke-linejoin:miter;stroke-opacity:1"
   d="m 277.03144,223.39681 -10.76171,-0.17169"
   id="path3954-7"
   inkscape:connector-curvature="0"
   sodipodi:nodetypes="cc" /><path
   style="fill:#ffdd55;stroke:#000000;stroke-width:1px;stroke-linecap:butt;stroke-linejoin:miter;stroke-opacity:1"
   d="m 468.94059,250.08474 0.0505,-10.28572 -7.33816,-0.2458 v -5.14286 l 73.80952,1.24281 v 4.58032 h -8.5034 l -0.34014,9.60544 -5.10206,0.34014 v -9.60544 l -48.29932,-0.34014 0.34014,9.60544 z"
   id="path3938-4"
   inkscape:connector-curvature="0"
   sodipodi:nodetypes="ccccccccccccc" /><path
   style="fill:#e3dedb;stroke:#000000;stroke-width:1px;stroke-linecap:butt;stroke-linejoin:miter;stroke-opacity:1"
   d="m 252.84712,29.749567 c 10.18283,8.396245 1.98108,37.445504 39.75077,30.945275 29.84423,11.866584 46.64572,5.197469 57.32953,-13.427028 22.88335,-9.081931 16.98249,-11.696296 21.16787,-22.627736 C 372.58979,2.506314 352.11719,4.5670847 352.11719,4.5670847 299.09778,-0.00329286 308.13572,9.2202297 302.84712,12.596282 285.75367,11.859697 274.05431,-5.1913896 259.0515,8.2167198 246.57118,20.674354 247.71585,24.794915 252.84712,29.749567 Z"
   id="path89"
   inkscape:connector-curvature="0"
   sodipodi:nodetypes="cccccccc" /><path
   style="fill:#e3dedb;stroke:#000000;stroke-width:1px;stroke-linecap:butt;stroke-linejoin:miter;stroke-opacity:1"
   d="m 157.29927,47.080292 c 11.4795,-0.84644 14.10895,-14.967959 34.67153,-2.189781 6.98843,-3.307026 15.06258,-2.994963 19.34307,-15.328467 0.30876,-5.255046 -16.43128,-4.33201 -13.86862,-14.963504 C 195.35836,7.5313834 187.68403,3.5725117 175.9124,3.2846715 154.62287,5.4744525 118.73479,0.67325912 97.445251,10.948905 79.54475,25.656149 115.30702,23.729197 112.04379,29.19708 c 1.39049,11.969699 22.35521,12.459968 45.25548,17.883212 z"
   id="path91"
   inkscape:connector-curvature="0"
   sodipodi:nodetypes="cccccccc" /><path
   style="fill:#ffe680;stroke:#000000;stroke-width:1px;stroke-linecap:butt;stroke-linejoin:miter;stroke-opacity:1"
   d="m 555.24861,14.917127 c -0.0194,17.324266 -24.10687,14.662539 -24.58563,-1.381216 0.005,-13.23320193 23.93497,-13.66998593 24.58563,1.381216 z"
   id="path97"
   inkscape:connector-curvature="0"
   sodipodi:nodetypes="ccc" /><path
   style="fill:none;stroke:#000000;stroke-width:1px;stroke-linecap:butt;stroke-linejoin:miter;stroke-opacity:1"
   d="m 544.47514,31.491713 c -2.20995,14.640884 -1.65746,13.259668 -1.65746,13.259668"
   id="path101"
   inkscape:connector-curvature="0" /><path
   style="fill:none;stroke:#000000;stroke-width:1px;stroke-linecap:butt;stroke-linejoin:miter;stroke-opacity:1"
   d="m 531.49171,27.348066 c -8.01104,10.773481 -8.01104,10.773481 -8.01104,10.773481"
   id="path103"
   inkscape:connector-curvature="0" /><path
   style="fill:none;stroke:#000000;stroke-width:1px;stroke-linecap:butt;stroke-linejoin:miter;stroke-opacity:1"
   d="M 525.41436,6.6298343 511.60221,5.801105"
   id="path107"
   inkscape:connector-curvature="0" /><path
   style="fill:none;stroke:#000000;stroke-width:1px;stroke-linecap:butt;stroke-linejoin:miter;stroke-opacity:1"
   d="m 526.24309,17.127071 -13.53591,4.972376"
   id="path109"
   inkscape:connector-curvature="0" /></svg>